<svg width="72" height="27" viewBox="0 0 72 27" fill="none" xmlns="http://www.w3.org/2000/svg">
  <path d="M29.5482 16.7188L25.0517 5.10052H20.6105L27.4116 20.6214H31.836L38.3227 5.10052H33.8814L29.5482 16.7188Z" fill="black"/>
  <path d="M64.442 4.67607C61.5924 4.67607 58.8052 5.76079 57.3432 6.61205V20.6214H61.1939V8.7862C61.1939 8.7862 62.2982 8.10472 64.1971 8.10472C67.1764 8.10472 67.6517 10.2364 67.6517 12.5497V20.6214H71.5V11.4084C71.5 7.72742 69.373 4.67607 64.442 4.67607Z" fill="black"/>
  <path d="M25.8127 27H21.2586L16.755 16.4146H10.7149V12.9977H15.3026L11.8 4.76568L5.1165 20.6214H0.5L9.61777 0H13.9438L25.8127 27Z" fill="black"/>
  <path d="M46.7754 4.67607C42.1109 4.67607 38.8916 8.12594 38.8916 12.7761C38.8916 17.596 42.0509 21.152 47.2292 21.152C49.8195 21.152 52.1001 20.2488 53.7782 18.4378L51.1063 16.0538C50.2132 17.0513 48.6528 17.7469 47.1643 17.7469C44.9269 17.7469 42.7423 16.0774 42.7423 12.7761C42.7423 10.102 44.2811 8.10472 46.7706 8.10472C48.8304 8.10472 50.2348 9.29319 50.4701 11.1537H45.4527V14.2404H54.4024C54.4024 14.2404 54.5056 13.3137 54.5056 12.6747C54.5056 8.30987 51.8601 4.67607 46.7754 4.67607Z" fill="black"/>
</svg>
